<?xml version="1.0" encoding="UTF-8" standalone="no"?>
<!-- Created with Inkscape (http://www.inkscape.org/) -->

<svg
   width="300"
   height="400"
   viewBox="0 0 79.37499 105.83332"
   version="1.1"
   id="svg1"
   inkscape:version="1.4.2 (ebf0e940d0, 2025-05-08)"
   sodipodi:docname="drawing_f2 (copy 1).svg"
   xml:space="preserve"
   xmlns:inkscape="http://www.inkscape.org/namespaces/inkscape"
   xmlns:sodipodi="http://sodipodi.sourceforge.net/DTD/sodipodi-0.dtd"
   xmlns="http://www.w3.org/2000/svg"
   xmlns:svg="http://www.w3.org/2000/svg"><sodipodi:namedview
     id="namedview1"
     pagecolor="#ffffff"
     bordercolor="#000000"
     borderopacity="0.25"
     inkscape:showpageshadow="2"
     inkscape:pageopacity="0.0"
     inkscape:pagecheckerboard="0"
     inkscape:deskcolor="#d1d1d1"
     inkscape:document-units="mm"
     inkscape:zoom="0.93607325"
     inkscape:cx="-9.080486"
     inkscape:cy="196.03167"
     inkscape:window-width="1704"
     inkscape:window-height="996"
     inkscape:window-x="0"
     inkscape:window-y="0"
     inkscape:window-maximized="1"
     inkscape:current-layer="bust" /><defs
     id="defs1" /><path
     id="rect1"
     style="display:inline;fill:#ffcc00;stroke-width:0.458458"
     d="M 0.09993271,0.09993271 H 79.39233 V 105.72039 H 0.09993271 Z" /><g
     inkscape:label="Layer 1"
     inkscape:groupmode="layer"
     id="layer1"
     style="display:inline"><g
       id="SVGRepo_bgCarrier"
       stroke-width="0"
       transform="matrix(0.26458333,0,0,0.26458333,49.2125,5.55625)" /><g
       id="SVGRepo_tracerCarrier"
       stroke-linecap="round"
       stroke-linejoin="round"
       transform="matrix(0.26458333,0,0,0.26458333,49.2125,5.55625)" /><g
       id="bust"
       inkscape:label="bust"
       style="display:inline"><g
         id="bust_inner"
         transform="matrix(-1.6064891,0,0,1.6532184,83.751546,24.160821)"><path
           id="head2"
           style="display:inline;fill:#ffffff;stroke:#ffffff;stroke-width:0.814794;stroke-linecap:round;stroke-linejoin:round;stroke-dasharray:none"
           d="m 37.262276,47.971051 h 8.067905 m 1.635437,5.172228 c -2.060835,-0.253893 -3.684791,-1.712511 -4.236552,-3.805225 -0.172597,-0.654623 -0.169506,-1.833844 0.0066,-2.498635 0.469631,-1.773348 1.779668,-3.148632 3.472085,-3.645018 0.367855,-0.107894 0.586247,-0.130422 1.271357,-0.131129 0.96635,-9.99e-4 1.299548,0.07208 2.082277,0.456715 1.369094,0.67278 2.276226,1.814837 2.686672,3.382449 0.155121,0.592474 0.141961,1.861912 -0.02582,2.490591 -0.484473,1.815252 -1.892522,3.228201 -3.618736,3.631337 -0.584845,0.136588 -1.157153,0.178136 -1.637826,0.118924 z M 33.298475,52.854316 c -1.059274,-0.151455 -2.056801,-0.665264 -2.818122,-1.451564 -1.875764,-1.937307 -1.918194,-5.071907 -0.0957,-7.069802 2.149124,-2.35596 5.840169,-2.043013 7.595447,0.643981 0.576043,0.881811 0.833506,1.76584 0.833408,2.861589 -7.8e-5,0.852712 -0.147081,1.491113 -0.519268,2.254935 -0.801876,1.645692 -2.339062,2.684479 -4.11572,2.781285 -0.293578,0.01596 -0.689598,0.0068 -0.880047,-0.02043 z m 7.27162,3.720733 c -1.406297,-1.296505 -3.036956,-1.905712 -4.41319,-0.914844 -1.619402,1.165946 -2.27387,1.812067 -3.109753,1.213919 -0.83588,-0.598148 0.404817,0.715505 1.972097,1.203421 1.503158,0.467955 1.994431,-0.956535 3.493619,0.09451 1.605249,1.125397 2.161713,0.994976 2.161713,0.994976 m -0.101902,-2.593853 c 1.345022,-1.299644 2.904631,-1.910326 4.2209,-0.917059 1.548842,1.168768 2.174793,1.816454 2.974255,1.216858 0.79946,-0.599596 -0.1499,0.810026 -1.648891,1.299124 -1.437662,0.469087 -2.408878,-0.591127 -3.81762,0.452734 -1.136242,0.841942 -1.634254,0.475936 -1.634254,0.475936"
           transform="matrix(-0.62247544,0,0,0.60488077,52.13328,-14.614416)" /><path
           id="torso2"
           style="display:inline;fill:none;stroke:#ffffff;stroke-width:0.455001;stroke-linecap:round;stroke-linejoin:round"
           d="m 30.879206,78.247309 0.999328,-11.292395 7.894683,4.097242 8.394348,-4.397042 1.099259,12.191791 M 16.542385,114.26258 c 10.131757,1.30327 41.980334,-0.66445 53.339694,-0.81832 5.49435,-0.0744 9.68386,6.29577 10.18409,-4.12731 0.001,-0.0242 -0.11999,-0.88743 -0.30799,-1.93914 -0.18801,-1.05172 -0.419463,-2.93116 -0.63178,-4.15879 C 77.908446,96.176715 77.630315,88.131139 73.192828,82.899757 54.968184,78.058275 55.004468,80.162616 49.455118,78.42405 49.209595,78.34713 43.15479,99.345213 39.931276,99.195693 37.117365,99.065173 31.271103,78.212411 30.612523,78.330507 21.413785,79.980024 22.37733,78.933178 11.829025,81.02915 5.9134933,82.20458 6.6587951,80.777466 4.2437195,90.994097 3.570241,93.843151 0.4898563,114.56077 0.4898563,114.56077 l 4.243574,-0.0188 c 1.980781,-0.009 4.702811,-1.19351 7.9557677,-0.77507 z"
           transform="matrix(-0.62247544,0,0,0.60488077,52.13328,-14.614416)" /><path
           style="fill:#ffffff;fill-opacity:1;stroke:#ffffff;stroke-width:0.504705;stroke-linecap:round;stroke-linejoin:round;stroke-dasharray:none;stroke-opacity:1"
           d="m 85.864006,109.26096 c -2.351349,-0.52087 -4.645504,-1.33717 -5.700208,-2.02823 -0.334678,-0.21929 -0.897059,-0.91056 -1.249734,-1.53616 -0.588396,-1.04373 -0.659499,-1.56654 -0.862984,-6.345372 -0.121966,-2.864359 -0.413011,-6.202861 -0.646767,-7.418893 -0.427528,-2.224059 -1.54882,-5.004346 -2.247705,-5.573274 -0.206875,-0.168405 -1.722678,-0.752037 -3.368453,-1.29696 -4.335609,-1.435537 -4.230416,-1.248035 -2.110507,-3.761898 1.976272,-2.343532 3.750032,-5.587683 4.026081,-7.363572 0.0991,-0.637549 0.525335,-2.961921 0.947183,-5.165274 0.421849,-2.203353 0.964342,-5.448292 1.205541,-7.210974 0.507291,-3.70729 1.001624,-5.043329 2.988423,-8.076849 4.569124,-6.976311 11.93774,-11.127648 20.372786,-11.477637 6.845788,-0.284047 14.926288,2.099696 18.307328,5.400652 3.25221,3.175174 5.5197,10.273862 6.26993,19.628833 0.67919,8.469254 -1.00917,15.551509 -5.65783,23.733259 -6.00741,10.573179 -11.5491,15.683909 -19.603573,18.079059 -3.280927,0.97565 -9.251597,1.17042 -12.669511,0.41329 z"
           id="head1"
           transform="scale(0.26458333)" /><path
           style="fill:#ffffff;fill-opacity:1;stroke:#ffffff;stroke-width:0.504705;stroke-linecap:round;stroke-linejoin:round;stroke-dasharray:none;stroke-opacity:1"
           d="m 159.25217,202.65582 c -23.83661,2.9795 -98.765571,-1.51903 -125.490333,-1.87082 -12.926338,-0.17015 -22.782852,14.39317 -23.9597213,-9.4357 -0.00273,-0.0553 0.2822973,-2.0288 0.7246033,-4.4332 0.442306,-2.40439 1.111162,-6.68284 1.486347,-9.50765 1.44072,-10.84738 2.167995,-13.00482 5.593894,-16.59416 2.830257,-2.96529 6.154303,-4.99608 10.969863,-6.70192 1.322012,-0.46831 5.648597,-1.79679 9.614632,-2.95218 15.558665,-4.53257 31.211751,-10.1629 38.458529,-13.8333 2.671091,-1.35288 3.219344,-1.76827 6.038937,-4.57543 3.3398,-3.32508 4.36747,-4.94825 5.16748,-8.16185 0.512695,-2.05948 0.939787,-5.85947 0.94554,-8.41281 0.0025,-1.10167 0.0816,-2.64495 0.175809,-3.42949 l 0.171295,-1.42645 1.176607,0.17644 c 8.324602,1.24835 18.176158,-3.7395 24.694928,-12.50307 l 1.55683,-2.092944 0.004,1.825871 c 0.007,3.843343 0.54359,13.674563 0.92365,16.935653 1.17375,10.07145 3.65388,15.66891 8.5057,19.19671 5.12747,3.72822 20.74927,9.98477 37.43847,14.99417 8.65435,2.59767 12.69107,3.98156 14.84631,5.08968 6.08793,3.13014 11.72693,10.36663 14.24313,18.63659 1.56948,5.15836 1.88737,5.63881 2.64107,10.8952 0.65684,4.5808 0.49884,8.28152 0.57218,8.68547 l 1.26644,10.17691 -9.9837,-0.0429 c -4.66011,-0.02 -11.06413,-2.72856 -18.71724,-1.77194 z"
           id="torso1"
           transform="scale(0.26458333)"
           sodipodi:nodetypes="ssssssssssssscssccssssssscsss" /></g></g><g
       id="hat"
       style="display:inline"><g
         id="hat_inner"
         transform="matrix(0.05966087,0,0,0.05796594,-15.702579,4.9771228)"
         style="stroke:#ffeeaa"><g
           id="Layer_3"
           style="opacity:0.31;stroke:#ffeeaa">
</g><path
           id="path2"
           style="fill:#000000;fill-opacity:1;stroke:#ffeeaa;stroke-width:8.50233;stroke-linecap:round;stroke-linejoin:round;stroke-opacity:1"
           sodipodi:type="inkscape:offset"
           inkscape:radius="0"
           inkscape:original="M 1002.1328 287.66406 C 929.2763 286.28352 836.62707 291.13302 819.87695 314.83789 C 799.84717 343.1841 799.47704 407.94917 800.56641 438.88867 C 908.39627 436.07611 1081.2445 463.70579 1110.043 433.55469 C 1117.334 425.92125 1119.6677 382.63836 1120.1348 379.51367 C 1126.8349 334.68993 1114.6787 301.04635 1091.2285 294.15039 C 1082.4347 291.56441 1045.8467 288.49239 1002.1328 287.66406 z M 800.56641 438.88867 C 791.33188 439.12954 782.40856 439.51571 774.26172 440.25977 C 735.07751 443.83849 713.87053 436.08612 699.61914 464.19727 C 689.0172 485.10979 700.62918 527.42586 724.91406 541.00781 C 745.96762 552.78255 768.39228 555.85267 781 559.62891 C 828.36289 573.81496 917.69199 572.79184 944.79688 572.61719 C 1001.3888 572.25255 1101.2236 574.83446 1148.9336 548.96875 C 1184.2192 529.83885 1184.6453 484.1627 1181.6797 473.44531 C 1175.0685 449.55291 1185.028 453.61843 1148.1777 457.06641 C 1111.3275 460.5144 1084.5781 461.59766 1084.5781 461.59766 L 801.46484 455.98633 C 801.46484 455.98633 800.93463 449.34682 800.56641 438.88867 z "
           d="m 1002.1328,287.66406 c -72.8565,-1.38054 -165.50573,3.46896 -182.25585,27.17383 -20.02978,28.34621 -20.39991,93.11128 -19.31054,124.05078 107.82986,-2.81256 280.67809,24.81712 309.47659,-5.33398 7.291,-7.63344 9.6247,-50.91633 10.0918,-54.04102 6.7001,-44.82374 -5.4561,-78.46732 -28.9063,-85.36328 -8.7938,-2.58598 -45.3818,-5.658 -89.0957,-6.48633 z M 800.56641,438.88867 c -9.23453,0.24087 -18.15785,0.62704 -26.30469,1.3711 -39.18421,3.57872 -60.39119,-4.17365 -74.64258,23.9375 -10.60194,20.91252 1.01004,63.22859 25.29492,76.81054 21.05356,11.77474 43.47822,14.84486 56.08594,18.6211 47.36289,14.18605 136.69199,13.16293 163.79688,12.98828 56.59192,-0.36464 156.42672,2.21727 204.13672,-23.64844 35.2856,-19.1299 35.7117,-64.80605 32.7461,-75.52344 -6.6112,-23.8924 3.3483,-19.82688 -33.502,-16.3789 -36.8502,3.44799 -63.5996,4.53125 -63.5996,4.53125 l -283.11326,-5.61133 c 0,0 -0.53021,-6.63951 -0.89843,-17.09766 z" /></g></g></g></svg>
